<?xml version="1.0" encoding="UTF-8" standalone="no"?>
<svg width="27px" height="27px" viewBox="0 0 27 27" version="1.1" xmlns="http://www.w3.org/2000/svg" xmlns:xlink="http://www.w3.org/1999/xlink">
    <!-- Generator: sketchtool 3.6.1 (26313) - http://www.bohemiancoding.com/sketch -->
    <title>android</title>
    <desc>Created with sketchtool.</desc>
    <defs></defs>
    <g id="Page-1" stroke="none" stroke-width="1" fill="none" fill-rule="evenodd">
        <g id="juejin_chrome_extension_font-end" transform="translate(-1215.000000, -82.000000)">
            <g id="Shape-+-Path-+-Path-+-article" transform="translate(1215.000000, 82.000000)">
                <g id="Shape-+-Path-+-Path" transform="translate(5.684211, 3.552632)">
                    <path d="M0.355263158,7.46052632 L0.355263158,12.7894737 C0.355263158,13.4657347 0.827533806,13.8552632 1.42105263,13.8552632 C2.0145714,13.8552632 2.48684211,13.4657347 2.48684211,12.7894737 L2.48684211,7.46052632 C2.48684211,6.78426529 2.0145714,6.39473684 1.42105263,6.39473684 C0.827533806,6.39473684 0.355263158,6.78426529 0.355263158,7.46052632 Z M6.75,15.6315789 L8.88157895,15.6315789 L8.88157895,18.4736842 C8.88157895,19.149947 9.35384975,19.6880473 9.94736869,19.6880473 C10.5408876,19.6880473 11.0131579,19.149947 11.0131579,18.4736842 L11.0131579,15.6315789 L11.8564197,15.6315789 C12.5701478,15.6315789 13.1447368,15.0427019 13.1447368,14.3112266 L13.1447368,6.03947368 L7.81578947,6.03947368 L2.48684211,6.03947368 L2.48684211,14.3112266 C2.48684211,15.0427019 3.06143145,15.6315789 3.775159,15.6315789 L4.61842105,15.6315789 L4.61842105,18.4736842 C4.61842105,19.149947 5.09069147,19.6880473 5.68421038,19.6880473 C6.2777293,19.6880473 6.75,19.149947 6.75,18.4736842 L6.75,15.6315789 Z M13.1447368,7.46052632 L13.1447368,12.7894737 C13.1447368,13.4657347 13.6170074,13.8552632 14.2105263,13.8552632 C14.8040452,13.8552632 15.2763158,13.4657347 15.2763158,12.7894737 L15.2763158,7.46052632 C15.2763158,6.78426529 14.8040452,6.39473684 14.2105263,6.39473684 C13.6170074,6.39473684 13.1447368,6.78426529 13.1447368,7.46052632 Z M4.42663744,0.02319875 C4.34142579,0.0730791636 4.31340431,0.17648381 4.36075758,0.26669761 L5.20255526,1.87262654 C3.58297492,2.76255423 2.48903461,4.0985105 2.48684211,6.03947368 L13.1447368,6.03947368 C13.1425471,4.0985105 12.0486041,2.76255423 10.4290232,1.87262654 L11.2708217,0.26669761 C11.3181747,0.17648381 11.290153,0.0730791636 11.2049416,0.02319875 C11.178993,0.00801027329 11.1526705,0.000293089742 11.1244217,8.75971402e-06 C11.0639485,-0.000607492287 11.0066271,0.0313009384 10.9743616,0.0927699403 L10.1215835,1.71609182 C9.42397715,1.38931962 8.6415038,1.20590533 7.81578952,1.20590533 C6.99007456,1.20590533 6.2076006,1.38931962 5.50999492,1.71609182 L4.65721684,0.0927699403 C4.62495152,0.0313009384 4.56762966,-0.000603830931 4.50715724,8.75971402e-06 C4.47890852,0.000313834821 4.4525859,0.00801027329 4.42663744,0.02319875 Z" id="Shape" stroke="#007FFF" stroke-width="0.72" fill="#E9F3FD"></path>
                    <path d="M9.94736842,3.90789497 C9.94736842,4.10226781 10.1082589,4.26315789 10.3026318,4.26315789 C10.4970042,4.26315789 10.6578947,4.10226781 10.6578947,3.90789497 C10.6578947,3.71352167 10.4970042,3.55263158 10.3026318,3.55263158 C10.1082589,3.55263158 9.94736842,3.71352167 9.94736842,3.90789497 Z" id="Path" fill="#007FFF"></path>
                    <path d="M4.97368421,3.90789497 C4.97368421,4.10226781 5.13457459,4.26315789 5.32894748,4.26315789 C5.52332038,4.26315789 5.68421053,4.10226781 5.68421053,3.90789497 C5.68421053,3.71352167 5.52332038,3.55263158 5.32894748,3.55263158 C5.13457459,3.55263158 4.97368421,3.71352167 4.97368421,3.90789497 Z" id="Path" fill="#007FFF"></path>
                </g>
            </g>
        </g>
    </g>
</svg>