<?xml version="1.0" encoding="UTF-8" standalone="no"?>
<svg width="27px" height="27px" viewBox="0 0 27 27" version="1.1" xmlns="http://www.w3.org/2000/svg" xmlns:xlink="http://www.w3.org/1999/xlink">
    <!-- Generator: sketchtool 3.6.1 (26313) - http://www.bohemiancoding.com/sketch -->
    <title>backend</title>
    <desc>Created with sketchtool.</desc>
    <defs></defs>
    <g id="Page-1" stroke="none" stroke-width="1" fill="none" fill-rule="evenodd">
        <g id="juejin_chrome_extension_font-end" transform="translate(-1215.000000, -294.000000)" stroke="#007FFF" stroke-width="0.72" fill="#E9F3FD">
            <g id="Oval-360-Copy-+-Oval-360-Copy-Copy-+-Oval-360-Copy-+-Oval-360-Copy-+-Oval-360-Copy-+-Oval-360-+-frontend" transform="translate(1215.000000, 294.000000)">
                <g id="Oval-360-Copy-+-Oval-360-Copy-Copy-+-Oval-360-Copy-+-Oval-360-Copy-+-Oval-360-Copy-+-Oval-360" transform="translate(7.105263, 5.684211)">
                    <g id="Oval-360-Copy-+-Oval-360-Copy-Copy" transform="translate(0.000000, 7.105263)">
                        <path d="M6.39473684,7.81578947 C9.92645248,7.81578947 12.7894737,6.94097744 12.7894737,5.86184211 L12.7894737,2.34473684 C12.7894737,2.34473684 0,2.34473684 0,2.34473684 L0,5.86184211 C0,6.94097744 2.86302121,7.81578947 6.39473684,7.81578947 Z" id="Oval-360-Copy" stroke-linecap="round" stroke-linejoin="round"></path>
                        <path d="M6.39473684,3.90789474 C9.92645248,3.90789474 12.7894737,3.0330827 12.7894737,1.95394737 C12.7894737,0.874812035 9.92645248,8.67726943e-17 6.39473684,8.67726943e-17 C2.86302121,8.67726943e-17 0,0.874812035 0,1.95394737 C0,3.0330827 2.86302121,3.90789474 6.39473684,3.90789474 Z" id="Oval-360"></path>
                    </g>
                    <g id="Oval-360-Copy-+-Oval-360-Copy" transform="translate(0.000000, 3.552632)">
                        <path d="M6.39473684,7.81578947 C9.92645248,7.81578947 12.7894737,6.94097744 12.7894737,5.86184211 L12.7894737,2.34473684 C12.7894737,2.34473684 0,2.34473684 0,2.34473684 L0,5.86184211 C0,6.94097744 2.86302121,7.81578947 6.39473684,7.81578947 Z" id="Oval-360-Copy" stroke-linecap="round" stroke-linejoin="round"></path>
                        <path d="M6.39473684,3.90789474 C9.92645248,3.90789474 12.7894737,3.0330827 12.7894737,1.95394737 C12.7894737,0.874812035 9.92645248,8.67726943e-17 6.39473684,8.67726943e-17 C2.86302121,8.67726943e-17 0,0.874812035 0,1.95394737 C0,3.0330827 2.86302121,3.90789474 6.39473684,3.90789474 Z" id="Oval-360"></path>
                    </g>
                    <g id="Oval-360-Copy-+-Oval-360">
                        <path d="M6.39473684,7.81578947 C9.92645248,7.81578947 12.7894737,6.94097744 12.7894737,5.86184211 L12.7894737,2.34473684 C12.7894737,2.34473684 0,2.34473684 0,2.34473684 L0,5.86184211 C0,6.94097744 2.86302121,7.81578947 6.39473684,7.81578947 Z" id="Oval-360-Copy" stroke-linecap="round" stroke-linejoin="round"></path>
                        <path d="M6.39473684,3.90789474 C9.92645248,3.90789474 12.7894737,3.0330827 12.7894737,1.95394737 C12.7894737,0.874812035 9.92645248,8.67726943e-17 6.39473684,8.67726943e-17 C2.86302121,8.67726943e-17 0,0.874812035 0,1.95394737 C0,3.0330827 2.86302121,3.90789474 6.39473684,3.90789474 Z" id="Oval-360"></path>
                    </g>
                </g>
            </g>
        </g>
    </g>
</svg>