<?xml version="1.0" encoding="UTF-8" standalone="no"?>
<svg width="27px" height="27px" viewBox="0 0 27 27" version="1.1" xmlns="http://www.w3.org/2000/svg" xmlns:xlink="http://www.w3.org/1999/xlink">
    <!-- Generator: sketchtool 3.7.1 (28215) - http://www.bohemiancoding.com/sketch -->
    <title>342EC877-C5D5-434D-A802-FAAA37596BA6</title>
    <desc>Created with sketchtool.</desc>
    <defs>
        <path d="M4,6.72348118 C4,6.32391356 4.32978058,6 4.72162151,6 L22.2783785,6 C22.676919,6 23,6.31329632 23,6.72348118 L23,20.2765188 C23,20.6760864 22.6702194,21 22.2783785,21 L4.72162151,21 C4.32308096,21 4,20.6867037 4,20.2765188 L4,6.72348118 Z" id="path-1"></path>
        <mask id="mask-2" maskContentUnits="userSpaceOnUse" maskUnits="objectBoundingBox" x="-1" y="-1" width="21" height="17">
            <rect x="3" y="5" width="21" height="17" fill="white"></rect>
            <use xlink:href="#path-1" fill="black"></use>
        </mask>
    </defs>
    <g id="Page-1" stroke="none" stroke-width="1" fill="none" fill-rule="evenodd">
        <g id="juejin_chrome_extension_designer" transform="translate(-1215.000000, -19.000000)">
            <g id="Group-5" transform="translate(1215.000000, 19.000000)">
                <g id="Rectangle-971-+-frontend-+-&lt;/&gt;">
                    <g id="Rectangle-971">
                        <use fill="#E9F3FD" fill-rule="evenodd" xlink:href="#path-1"></use>
                        <use stroke="#007FFF" mask="url(#mask-2)" stroke-width="2" stroke-linejoin="round" xlink:href="#path-1"></use>
                    </g>
                    <path d="M6.50478142,13.0027322 L6.50478142,13.6338798 L10.9706284,15.8237705 L10.9706284,15.1065574 L7.25068306,13.318306 L10.9706284,11.5204918 L10.9706284,10.8032787 L6.50478142,13.0027322 Z M11.9747268,17 L12.6728142,17 L15.0157104,10 L14.3271858,10 L11.9747268,17 Z M16.0293716,10.8032787 L16.0293716,11.5204918 L19.7397541,13.318306 L16.0293716,15.1065574 L16.0293716,15.8237705 L20.4952186,13.6338798 L20.4952186,13.0027322 L16.0293716,10.8032787 Z" id="&lt;/&gt;" fill="#007FFF"></path>
                </g>
            </g>
        </g>
    </g>
</svg>