<?xml version="1.0" encoding="UTF-8" standalone="no"?>
<svg width="27px" height="27px" viewBox="0 0 27 27" version="1.1" xmlns="http://www.w3.org/2000/svg" xmlns:xlink="http://www.w3.org/1999/xlink">
    <!-- Generator: sketchtool 3.6.1 (26313) - http://www.bohemiancoding.com/sketch -->
    <title>ios</title>
    <desc>Created with sketchtool.</desc>
    <defs></defs>
    <g id="Page-1" stroke="none" stroke-width="1" fill="none" fill-rule="evenodd" stroke-linejoin="round">
        <g id="juejin_chrome_extension_font-end" transform="translate(-1215.000000, -250.000000)" stroke="#007FFF" stroke-width="0.72" fill="#E9F3FD">
            <g id="path188-+-android" transform="translate(1215.000000, 250.000000)">
                <path d="M17.3142794,3.55263158 C16.3491971,3.59136301 15.1810543,4.1954958 14.488113,5.00676814 C13.8677664,5.72376587 13.3237246,6.87280188 13.4711891,7.9742809 C14.5474924,8.05770638 15.6466014,7.42666162 16.3166468,6.61658187 C16.9865817,5.80530951 17.4388477,4.6770022 17.3142794,3.55263158 L17.3142794,3.55263158 Z M16.9470568,8.17611058 C15.583877,8.19449352 14.3206383,9.07022193 13.6227631,9.07022193 C12.8657462,9.07022193 11.6952484,8.21323596 10.4569333,8.23741695 C8.82680714,8.26159795 7.32632086,9.18402916 6.48707197,10.6421499 C4.79527201,13.5765272 6.05536395,17.9253941 7.70241998,20.3072333 C8.50901797,21.4715534 9.46933224,22.7830598 10.7318335,22.7346977 C11.9483816,22.6863355 12.4075352,21.9494224 13.8756161,21.9494224 C15.343697,21.9494224 15.7573464,22.7349379 17.042824,22.711966 C18.3500693,22.6865757 19.1800524,21.5220217 19.9806041,20.354074 C20.9045034,19.0023504 21.2864873,17.6945036 21.3082547,17.6255874 C21.2792316,17.613497 18.7587899,16.6476173 18.7321854,13.7446754 C18.7104184,11.3168923 20.7152966,10.1513496 20.8059934,10.0945238 C19.6777239,8.4441632 17.9220906,8.21786435 17.2956772,8.19126487 C17.1789994,8.17945769 17.0625805,8.17455248 16.9470568,8.17611058 L16.9470568,8.17611058 Z" id="path188"></path>
            </g>
        </g>
    </g>
</svg>