<?xml version="1.0" encoding="UTF-8" standalone="no"?>
<svg width="64px" height="40px" viewBox="0 0 64 40" version="1.1" xmlns="http://www.w3.org/2000/svg" xmlns:xlink="http://www.w3.org/1999/xlink">
    <!-- Generator: sketchtool 3.7.1 (28215) - http://www.bohemiancoding.com/sketch -->
    <title>0E663BAB-BCB1-426B-9B54-919DB96491F4</title>
    <desc>Created with sketchtool.</desc>
    <defs></defs>
    <g id="Page-1" stroke="none" stroke-width="1" fill="none" fill-rule="evenodd">
        <g id="juejin_chrome_extension_designer" transform="translate(-22.000000, -12.000000)" fill="#006CFF">
            <g id="Group-6" transform="translate(22.000000, 12.000000)">
                <path d="M52.1107569,34 L55.4077841,34 L55.6912841,34 L55.6912841,34.2835 L55.6912841,35.5775877 L55.6912841,35.8610877 L55.4077841,35.8610877 L37.2835,35.8610877 L37,35.8610877 L37,35.5775877 L37,34.2835 L37,34 L37.2835,34 L40.002073,34 L38.0481862,22.5864889 L38,22.3050122 L38.2818201,22.2588765 L39.5854248,22.0454683 L39.8631682,22 L39.9106603,22.2774045 L41.9175875,34 L45,34 L45,19.8610877 L36.2835,19.8610877 L36,19.8610877 L36,19.5775877 L36,18.2835 L36,18 L36.2835,18 L45,18 L45,11.8610877 L39.2835,11.8610877 L39,11.8610877 L39,11.5775877 L39,10.2835 L39,10 L39.2835,10 L52.8431192,10 L53.1266192,10 L53.1266192,10.2835 L53.1266192,11.5775877 L53.1266192,11.8610877 L52.8431192,11.8610877 L46.8886307,11.8610877 L46.8886307,18 L56.676597,18 L56.960097,18 L56.960097,18.2835 L56.960097,19.5775877 L56.960097,19.8610877 L56.676597,19.8610877 L46.8886307,19.8610877 L46.8886307,34 L50.1952626,34 L52.2014229,22.2774251 L52.2489005,22 L52.5266614,22.0454712 L53.8302661,22.2588793 L54.1120685,22.3050121 L54.0639031,22.5864741 L52.1107569,34 Z M25.6445931,33.394003 L25.6445931,24.2831845 L29.9852436,24.2831845 L30.2687436,24.2831845 L30.2687436,23.9996845 L30.2687436,14.7236509 L30.2687436,14.4401509 L29.9852436,14.4401509 L28.663613,14.4401509 L28.380113,14.4401509 L28.380113,14.7236509 L28.380113,22.4220968 L25.6445931,22.4220968 L25.6445931,14.1431963 L25.6445931,13.8596963 L25.3610931,13.8596963 L24.0394624,13.8596963 L23.7559624,13.8596963 L23.7559624,14.1431963 L23.7559624,22.4220968 L21.0632133,22.4220968 L21.0632133,14.7236509 L21.0632133,14.4401509 L20.7797133,14.4401509 L19.4572632,14.4401509 L19.1737632,14.4401509 L19.1737632,14.7236509 L19.1737632,23.9996845 L19.1737632,24.2831845 L19.4572632,24.2831845 L23.7559624,24.2831845 L23.7559624,33.394003 L21.0632133,33.394003 L21.0632133,25.8175047 L21.0632133,25.5340047 L20.7797133,25.5340047 L19.4572632,25.5340047 L19.1737632,25.5340047 L19.1737632,25.8175047 L19.1737632,34.9715907 L19.1737632,35.2550907 L19.4572632,35.2550907 L29.9852436,35.2550907 L30.2687436,35.2550907 L30.2687436,34.9715907 L30.2687436,25.8175047 L30.2687436,25.5340047 L29.9852436,25.5340047 L28.663613,25.5340047 L28.380113,25.5340047 L28.380113,25.8175047 L28.380113,33.394003 L25.6445931,33.394003 Z M9.87507144,24.2843811 L8.53955333,25.5950337 L8.34146661,25.7894323 L8.14290465,25.5955191 L7.20719342,24.6817151 L7,24.4793726 L7.20671104,24.2765373 L9.87507144,21.6582075 L9.87507144,10.7961911 L7.82756892,10.7961911 L7.54406892,10.7961911 L7.54406892,10.5126911 L7.54406892,9.21860339 L7.54406892,8.93510339 L7.82756892,8.93510339 L9.87507144,8.93510339 L9.87507144,4.28374069 L9.87507144,4.00024069 L10.1585714,4.00024069 L11.4810215,4.00024069 L11.7645215,4.00024069 L11.7645215,4.28374069 L11.7645215,8.93510339 L14.2071203,8.93510339 L14.4906203,8.93510339 L14.4906203,9.21860339 L14.4906203,10.5126911 L14.4906203,10.7961911 L14.2071203,10.7961911 L11.7645215,10.7961911 L11.7645215,19.8041839 L13.3470087,18.2513676 L13.545182,18.05691 L13.7437327,18.2509821 L14.6786246,19.1647861 L14.8856249,19.3671172 L14.6790317,19.569864 L11.7645215,22.43011 L11.7645215,26.4509097 C11.7645215,28.5033917 11.4460609,30.4690939 10.9122446,32.2849648 C10.5846298,33.3994045 10.257303,34.2108019 10.0010996,34.7331799 L9.71186483,35.3148374 L9.58781551,35.5643033 L9.3362276,35.4446162 L8.14897228,34.8798066 L7.88935133,34.7562979 L8.01648703,34.4984337 L8.30378454,33.9157252 C8.34510587,33.8327818 8.44012103,33.6198153 8.5513804,33.3415931 C8.7359275,32.8801029 8.92030935,32.3522599 9.09218409,31.7669142 C9.58173147,30.0996857 9.87507144,28.3045927 9.87507144,26.4509097 L9.87507144,24.2843811 Z M15.9189868,35.4202067 L15.9759146,35.144635 L16.1070125,34.5100266 C16.8952289,30.6973168 17.1908764,22.4194558 17.1567402,12.3387469 L30.7974778,12.3387469 L30.7974778,4 L15.4565652,4 L15.1666698,4 L15.1731357,4.2898232 L15.1878842,4.95090706 C15.2017757,5.58113321 15.2243907,6.97752364 15.2411503,8.65553216 C15.2687515,11.4190086 15.2741163,14.2831703 15.2481512,17.1006194 C15.1743612,25.1075105 14.8662634,31.1857112 14.2555206,34.1385182 L14.1251715,34.7726666 L14.0677205,35.0521662 L14.3475865,35.1078049 L15.6429976,35.3653388 L15.9189868,35.4202067 Z M17.1510007,10.4776592 L17.0895077,5.86108772 L28.9088472,5.86108772 L28.9088472,10.4776592 L17.1510007,10.4776592 Z M56.3612273,12.4188801 L56.5518096,12.2169317 L57.4490108,11.2662225 L57.6476916,11.0556927 L57.4330631,10.8614469 L49.9326247,4.07330295 L49.7423895,4 L41.904374,4 L41.7141274,4.07331329 L34.2145084,10.8614572 L34,11.0556156 L34.1984833,11.2661285 L35.0948652,12.2168377 L35.2854314,12.4189536 L35.4913835,12.2325399 L42.611638,5.86108772 L49.0359329,5.86108772 L56.155368,12.232529 L56.3612273,12.4188801 Z" id="Combined-Shape"></path>
            </g>
        </g>
    </g>
</svg>