<?xml version="1.0" encoding="UTF-8" standalone="no"?>
<svg width="18px" height="4px" viewBox="0 0 18 4" version="1.1" xmlns="http://www.w3.org/2000/svg" xmlns:xlink="http://www.w3.org/1999/xlink">
    <!-- Generator: Sketch 3.7.2 (28276) - http://www.bohemiancoding.com/sketch -->
    <title>Group 5</title>
    <desc>Created with Sketch.</desc>
    <defs></defs>
    <g id="Page-1" stroke="none" stroke-width="1" fill="none" fill-rule="evenodd">
        <g id="juejin_chrome_extension_ios" transform="translate(-1393.000000, -30.000000)" fill="#BCC2CD">
            <g id="Group-5" transform="translate(1386.000000, 17.000000)">
                <path d="M9,17 C10.1045695,17 11,16.1045695 11,15 C11,13.8954305 10.1045695,13 9,13 C7.8954305,13 7,13.8954305 7,15 C7,16.1045695 7.8954305,17 9,17 Z M16,17 C17.1045695,17 18,16.1045695 18,15 C18,13.8954305 17.1045695,13 16,13 C14.8954305,13 14,13.8954305 14,15 C14,16.1045695 14.8954305,17 16,17 Z M23,17 C24.1045695,17 25,16.1045695 25,15 C25,13.8954305 24.1045695,13 23,13 C21.8954305,13 21,13.8954305 21,15 C21,16.1045695 21.8954305,17 23,17 Z" id="Combined-Shape"></path>
            </g>
        </g>
    </g>
</svg>